PathFileType	4	(X/Y/Z)	E:/New_biomech_experiments/MICROGRAVITY MOCAP/Session 2024-06-22/Neeraj_FullAction_pp_22_06_24_t02 (1).trc																																																																											
DataRate	CameraRate	NumFrames	NumMarkers	Units	OrigDataRate	OrigDataStartFrame	OrigNumFrames																																																																							
120	120	17	19	m	120	4737	7579																																																																							
Frame#	Time	RSHO			RBAK			LBHD			RUPA			PRSHO			RELB			CLAV			RFHD			LFHD			C7			RWRB			RFRM			RWRA			MRELB			DIA			STRN			ARSHO			RBHD			T10																						
		X1	Y1	Z1	X2	Y2	Z2	X3	Y3	Z3	X4	Y4	Z4	X5	Y5	Z5	X6	Y6	Z6	X7	Y7	Z7	X8	Y8	Z8	X9	Y9	Z9	X10	Y10	Z10	X11	Y11	Z11	X12	Y12	Z12	X13	Y13	Z13	X14	Y14	Z14	X15	Y15	Z15	X16	Y16	Z16	X17	Y17	Z17	X18	Y18	Z18	X19	Y19	Z19																				y19
																																																																														
4737	39.467	-0.05446	0.09286	0.07486	-0.10472	-0.11784	0.04345	-0.03386	0.21489	-0.11117	-0.0214	0.15938	0.22043	-0.10146	-0.00416	0.09778	-0.02092	0.24195	0.33029	0.10732	-0.004	-0.05402	0.06137	0.31314	0.03506	0.0799	0.32664	-0.06607	-0.09469	0.02748	-0.0592	-0.02111	0.39542	0.58462	-0.0029	0.33128	0.43559	0.07697	0.39714	0.56838	0.06215	0.17454	0.38259	0.08583	-0.30737	0.14021	0.14583	-0.1649	-0.02487	0.06439	0.04645	0.07806	-0.06037	0.21516	-0.00966	-0.10652	-1.5592	-0.0264																				-1.5592
4738	39.475	-0.05457	0.09281	0.07489	-0.10479	-0.11786	0.04351	-0.03406	0.21454	-0.11106	-0.02151	0.15936	0.2205	-0.10227	-0.0023	0.09831	-0.021	0.24191	0.3304	0.10719	-0.00399	-0.05407	0.06122	0.31312	0.03508	0.07988	0.32695	-0.06557	-0.09482	0.02748	-0.05917	-0.02123	0.39527	0.58474	-0.00301	0.33119	0.43567	0.0772	0.39735	0.56884	0.06203	0.17445	0.38261	0.08569	-0.30739	0.14018	0.14566	-0.16517	-0.02503	0.06433	0.0465	0.07808	-0.06018	0.21419	-0.00936	-0.10571	-1.55917	-0.02638																				-1.55917
4739	39.483	-0.05467	0.09283	0.07491	-0.10489	-0.11786	0.04352	-0.03418	0.21455	-0.11105	-0.02168	0.15933	0.22056	-0.10167	-0.00423	0.09782	-0.02127	0.24221	0.33058	0.10708	-0.00398	-0.05405	0.06106	0.31314	0.03509	0.07978	0.32693	-0.06553	-0.09496	0.02746	-0.05915	-0.02131	0.39509	0.58483	-0.00312	0.3311	0.43573	0.07669	0.39689	0.56861	0.06194	0.17442	0.38265	0.0856	-0.30737	0.14016	0.14561	-0.16488	-0.02487	0.06423	0.04644	0.07813	-0.06029	0.21416	-0.00933	-0.10262	-1.55915	-0.0264																				-1.55915
4740	39.492	-0.05509	0.09264	0.07487	-0.10499	-0.11789	0.04358	-0.03426	0.21491	-0.11113	-0.02174	0.15925	0.22065	-0.10176	-0.00424	0.09786	-0.02122	0.24179	0.33052	0.10696	-0.00399	-0.05404	0.06089	0.31329	0.0352	0.0798	0.32637	-0.06599	-0.09509	0.02746	-0.05908	-0.02145	0.39496	0.58493	-0.00324	0.33104	0.43584	0.07656	0.39676	0.56875	0.06187	0.17436	0.38271	0.08551	-0.3074	0.14015	0.14541	-0.16516	-0.02504	0.06413	0.04646	0.07812	-0.06048	0.21419	-0.00931	-0.10227	-1.55908	-0.0264																				-1.55908
4741	39.5	-0.05526	0.09262	0.0749	-0.10513	-0.11791	0.04357	-0.03441	0.2149	-0.11112	-0.02186	0.15918	0.2207	-0.10185	-0.00428	0.0979	-0.0215	0.24208	0.33072	0.10684	-0.00397	-0.05405	0.06074	0.31328	0.03523	0.07943	0.32626	-0.06618	-0.09519	0.02745	-0.05902	-0.02159	0.39481	0.58499	-0.00355	0.33102	0.43584	0.07646	0.39664	0.56889	0.06183	0.17432	0.38277	0.0854	-0.30742	0.14016	0.1454	-0.16488	-0.02485	0.06398	0.04646	0.07817	-0.06069	0.21416	-0.00928	-0.10294	-1.55902	-0.02637																				-1.55902
4742	39.508	-0.05506	0.09274	0.07501	-0.10521	-0.11789	0.0436	-0.03455	0.2149	-0.11106	-0.022	0.15915	0.22075	-0.10269	-0.0024	0.09848	-0.02148	0.2417	0.33067	0.10674	-0.00397	-0.05399	0.06061	0.31329	0.03527	0.07928	0.32627	-0.06617	-0.09534	0.02744	-0.05897	-0.02165	0.39471	0.58515	-0.00354	0.33088	0.43605	0.07629	0.39651	0.56904	0.06172	0.17427	0.38283	0.08534	-0.30741	0.14016	0.1452	-0.16517	-0.02506	0.06392	0.04647	0.07822	-0.06084	0.21416	-0.00921	-0.10304	-1.55897	-0.02633																				-1.55897
4743	39.517	-0.05543	0.09258	0.075	-0.10535	-0.11794	0.04369	-0.03471	0.21492	-0.11104	-0.02211	0.15916	0.22082	-0.10281	-0.00244	0.09851	-0.02172	0.24198	0.33088	0.10662	-0.00396	-0.05399	0.06046	0.3133	0.03529	0.07937	0.32637	-0.06593	-0.09545	0.02742	-0.05892	-0.02186	0.39457	0.58517	-0.00364	0.33082	0.43612	0.07618	0.3964	0.56917	0.06161	0.17422	0.38289	0.08522	-0.3074	0.14015	0.14506	-0.16517	-0.02504	0.0638	0.04646	0.07823	-0.06097	0.21414	-0.00915	-0.10314	-1.55892	-0.0263																				-1.55892
4744	39.525	-0.05523	0.09277	0.07511	-0.10544	-0.11792	0.04374	-0.03482	0.21489	-0.11096	-0.02229	0.15911	0.22085	-0.10212	-0.00438	0.09805	-0.02167	0.24159	0.33084	0.1065	-0.00393	-0.05397	0.06035	0.31334	0.03533	0.07921	0.32638	-0.06591	-0.09555	0.0274	-0.05885	-0.02199	0.39446	0.58531	-0.00376	0.33072	0.43624	0.07602	0.3963	0.56926	0.06147	0.17417	0.38292	0.08515	-0.30743	0.14017	0.14495	-0.16515	-0.02502	0.06345	0.04684	0.07826	-0.0612	0.21416	-0.00911	-0.1033	-1.55885	-0.02629																				-1.55885
4745	39.533	-0.05571	0.09253	0.07511	-0.10557	-0.11793	0.04377	-0.03507	0.21454	-0.11087	-0.02236	0.15908	0.22093	-0.10222	-0.00437	0.0981	-0.02193	0.24185	0.33106	0.1064	-0.00393	-0.05393	0.06016	0.31332	0.03537	0.07904	0.32637	-0.06589	-0.09568	0.02738	-0.05879	-0.02214	0.39432	0.58543	-0.0039	0.33067	0.43636	0.07589	0.39621	0.56941	0.06141	0.17409	0.383	0.08503	-0.30743	0.14014	0.14492	-0.16487	-0.02481	0.06361	0.04642	0.07831	-0.06137	0.21416	-0.00903	-0.10348	-1.55879	-0.02628																				-1.55879
4746	39.542	-0.05582	0.09253	0.07513	-0.10563	-0.11794	0.04385	-0.03513	0.21477	-0.111	-0.02247	0.15904	0.221	-0.10233	-0.00439	0.09816	-0.02189	0.24145	0.331	0.10617	-0.00382	-0.05399	0.06007	0.31334	0.03539	0.0789	0.32643	-0.06581	-0.09579	0.02739	-0.05874	-0.02229	0.39423	0.58558	-0.00402	0.33059	0.43644	0.07575	0.39615	0.56952	0.06133	0.17405	0.38306	0.08494	-0.30744	0.14013	0.14481	-0.16489	-0.02479	0.06325	0.04682	0.07835	-0.06153	0.21415	-0.00897	-0.10361	-1.55874	-0.02623																				-1.55874
4747	39.55	-0.05605	0.09296	0.07502	-0.10576	-0.11793	0.0439	-0.03528	0.21479	-0.11094	-0.02256	0.15902	0.22112	-0.10241	-0.00441	0.09823	-0.02226	0.24166	0.33119	0.10614	-0.00392	-0.05385	0.05997	0.31337	0.03543	0.07873	0.32641	-0.0658	-0.09588	0.0274	-0.05866	-0.02244	0.39413	0.58569	-0.00416	0.33055	0.43654	0.07559	0.3961	0.56961	0.06122	0.17402	0.38316	0.08488	-0.30742	0.14012	0.14469	-0.16486	-0.02476	0.06313	0.04682	0.07838	-0.06168	0.21416	-0.00892	-0.10369	-1.55866	-0.02617																				-1.55866
4748	39.558	-0.05613	0.09295	0.07515	-0.10589	-0.11792	0.04398	-0.0354	0.2148	-0.11087	-0.02264	0.15901	0.22121	-0.10253	-0.00442	0.09826	-0.02227	0.24173	0.33133	0.10592	-0.00381	-0.05389	0.05974	0.31323	0.03532	0.07859	0.32642	-0.06575	-0.09597	0.02739	-0.05858	-0.02261	0.39406	0.58578	-0.00431	0.33048	0.43668	0.07547	0.39605	0.56971	0.06114	0.174	0.38325	0.08475	-0.30742	0.14015	0.14454	-0.16486	-0.02475	0.06302	0.04679	0.07844	-0.06183	0.21418	-0.00885	-0.10378	-1.55858	-0.02611																				-1.55858
4749	39.567	-0.05628	0.09294	0.07516	-0.10605	-0.11792	0.04402	-0.03558	0.21484	-0.11085	-0.02274	0.15892	0.22129	-0.10263	-0.00441	0.09835	-0.02256	0.2415	0.33137	0.10581	-0.00378	-0.05386	0.05968	0.31325	0.03541	0.07821	0.32637	-0.0659	-0.0961	0.02741	-0.05849	-0.02278	0.39399	0.58587	-0.00445	0.33043	0.43678	0.0753	0.39599	0.56982	0.06109	0.17396	0.3833	0.08469	-0.30742	0.14015	0.14441	-0.16484	-0.02472	0.06293	0.04681	0.07849	-0.06208	0.21424	-0.00879	-0.10275	-1.55849	-0.02602																				-1.55849
4750	39.575	-0.0563	0.09293	0.07516	-0.10619	-0.1179	0.04409	-0.03573	0.21487	-0.11075	-0.02286	0.15895	0.22135	-0.10273	-0.00439	0.09842	-0.02248	0.24164	0.33154	0.10566	-0.00376	-0.05382	0.05958	0.31329	0.03547	0.07826	0.32645	-0.06563	-0.09619	0.02741	-0.05839	-0.02292	0.39393	0.58596	-0.00457	0.33039	0.43686	0.07516	0.39594	0.56988	0.06094	0.17393	0.38338	0.08456	-0.30744	0.1401	0.14429	-0.16482	-0.0247	0.06281	0.0468	0.07854	-0.06216	0.21423	-0.00871	-0.104	-1.55839	-0.02604																				-1.55839
4751	39.583	-0.0564	0.09291	0.07524	-0.10634	-0.11792	0.04419	-0.03582	0.21486	-0.11065	-0.02298	0.15892	0.22143	-0.1029	-0.0044	0.09848	-0.02275	0.24146	0.33161	0.10555	-0.00376	-0.05376	0.05949	0.31329	0.03557	0.0781	0.32645	-0.06557	-0.09632	0.02743	-0.05833	-0.02306	0.3939	0.58606	-0.0047	0.33035	0.43694	0.07508	0.39592	0.56995	0.06078	0.17388	0.38346	0.08447	-0.30744	0.14015	0.14416	-0.16481	-0.02469	0.06268	0.04681	0.07859	-0.06231	0.21426	-0.00864	-0.10868	-1.55833	-0.02621																				-1.55833
4752	39.592	-0.05652	0.09291	0.07535	-0.10649	-0.11792	0.04422	-0.03596	0.21486	-0.11056	-0.02349	0.15868	0.22152	-0.10304	-0.00443	0.09851	-0.02295	0.24143	0.33162	0.10541	-0.00373	-0.05373	0.05935	0.31328	0.03559	0.07794	0.32644	-0.06553	-0.09638	0.0274	-0.05824	-0.02318	0.39389	0.58615	-0.00485	0.33033	0.43701	0.07501	0.39588	0.57006	0.06067	0.17388	0.38354	0.08437	-0.30744	0.14016	0.144	-0.16483	-0.02465	0.06322	0.04726	0.079	-0.06242	0.21424	-0.00853	-0.1088	-1.55824	-0.02615																				-1.55824
4753	39.6	-0.05672	0.09245	0.0756	-0.10666	-0.11793	0.04425	-0.03609	0.21486	-0.11046	-0.02321	0.1589	0.22153	-0.10313	-0.00518	0.09806	-0.02306	0.24139	0.33168	0.10527	-0.00371	-0.05368	0.0592	0.31332	0.03567	0.07781	0.32647	-0.06544	-0.09648	0.02742	-0.05816	-0.02326	0.39386	0.58625	-0.00497	0.33033	0.43708	0.0749	0.39586	0.57008	0.0606	0.1739	0.38359	0.08426	-0.30744	0.14016	0.14376	-0.16508	-0.02485	0.06251	0.04678	0.07873	-0.06261	0.21425	-0.00848	-0.10708	-1.55816	-0.02604																				-1.55816
